<svg xmlns="http://www.w3.org/2000/svg" xmlns:xlink="http://www.w3.org/1999/xlink" aria-hidden="true" role="img" class="iconify iconify--logos" width="31.88" height="32" preserveAspectRatio="xMidYMid meet" viewBox="0 0 256 257"><defs><linearGradient id="IconifyId1813088fe1fbc01fb466" x1="-.828%" x2="57.636%" y1="7.652%" y2="78.411%"><stop offset="0%" stop-color="#41D1FF"></stop><stop offset="100%" stop-color="#BD34FE"></stop></linearGradient><linearGradient id="IconifyId1813088fe1fbc01fb467" x1="43.376%" x2="50.316%" y1="2.242%" y2="89.03%"><stop offset="0%" stop-color="#FFEA83"></stop><stop offset="8.333%" stop-color="#FFDD35"></stop><stop offset="100%" stop-color="#FFA800"></stop></linearGradient></defs><path fill="url(#IconifyId1813088fe1fbc01fb466)" d="M255.153 37.938L134.897 252.976c-2.483 4.44-8.862 4.466-11.382.048L.875 37.958c-2.746-4.814 1.371-10.646 6.827-9.67l120.385 21.517a6.537 6.537 0 0 0 2.322-.004l117.867-21.483c5.438-.991 9.574 4.796 6.877 9.62Z"></path><path fill="url(#IconifyId1813088fe1fbc01fb467)" d="M185.432.063L96.44 17.501a3.268 3.268 0 0 0-2.634 3.014l-5.474 92.456a3.268 3.268 0 0 0 3.997 3.378l24.777-5.718c2.318-.535 4.413 1.507 3.936 3.838l-7.361 36.047c-.495 2.426 1.782 4.5 4.151 3.78l15.304-4.649c2.372-.72 4.652 1.36 4.15 3.788l-11.698 56.621c-.732 3.542 3.979 5.473 5.943 2.437l1.313-2.028l72.516-144.72c1.215-2.423-.88-5.186-3.54-4.672l-25.505 <svg width="111" height="61" viewBox="0 0 111 61" fill="none" xmlns="http://www.w3.org/2000/svg">
<mask id="mask0_1_40" style="mask-type:luminance" maskUnits="userSpaceOnUse" x="0" y="0" width="111" height="61">
<path d="M110.16 0H0V60.17H110.16V0Z" fill="white"/>
</mask>
<g mask="url(#mask0_1_40)">
<path d="M67.9904 0.969971V22.4L46.1104 53.58L46.1004 53.59L42.6904 58.45V37.01L67.9904 0.969971Z" fill="black"/>
<path d="M109.7 0.640137V60.0601H84.4004V36.6801L109.7 0.640137Z" fill="black"/>
<path d="M68.68 0L65.39 2.87999L65.38 2.89C65.3467 2.91267 65.3164 2.93956 65.29 2.97H65.28L2.06998 58.36H2.06098C2.03098 58.389 2.01098 58.409 2.00098 58.409V58.42C1.98683 58.4289 1.97345 58.4389 1.96098 58.45L0.000976562 60.17L5.04098 53C5.06098 52.96 5.09098 52.93 5.11098 52.89L42.241 0H68.68Z" fill="black"/>
<path d="M68.68 0L67.99 0.970001L42.69 37.01L26.44 60.17H0L2.06 58.36H2.07L65.28 2.97L67.99 0.599991L68.68 0Z" fill="black"/>
<path d="M110.161 0L109.701 0.399994L105.621 3.981L105.611 3.991L105.571 4.01999C105.561 4.04099 105.551 4.04099 105.541 4.05099C105.531 4.061 105.531 4.06099 105.521 4.06099V4.071L105.441 4.131C105.406 4.15424 105.372 4.18105 105.341 4.211L84.4014 22.561L67.9914 36.941L44.8514 57.201L44.7714 57.281C44.7438 57.3102 44.7137 57.337 44.6814 57.361L42.6914 59.101L41.4814 60.171L42.6914 58.451L46.1014 53.591L46.1114 53.581L67.9914 22.4L83.7214 0H110.161Z" fill="url(#paint0_linear_1_40)"/>
<path d="M110.161 0L109.701 0.639999L84.4015 36.68L67.9915 60.06L67.9215 60.17H41.4805L42.6905 59.1L44.8505 57.2L67.9905 36.94L84.4005 22.56L105.34 4.20999L105.44 4.12999L105.45 4.12L105.52 4.06999V4.06C105.53 4.06 105.53 4.05 105.54 4.05L109.7 0.399002L110.161 0Z" fill="url(#paint1_linear_1_40)"/>
<g style="mix-blend-mode:multiply" opacity="0.24">
<path d="M67.9904 0.969971V20.02L42.6904 39.08V37.01L67.9904 0.969971Z" fill="black"/>
</g>
<g style="mix-blend-mode:multiply" opacity="0.24">
<path d="M109.7 0.640137V19.4701L109.55 19.5801L84.4004 38.5301V36.6801L109.7 0.640137Z" fill="black"/>
</g>
<g style="mix-blend-mode:overlay">
<path d="M65.2796 2.96997L2.06957 58.36C2.05957 58.37 2.05957 58.36 2.05957 58.36C2.33957 58.08 3.21957 57.24 4.57957 55.95C6.26957 54.38 8.64957 52.09 11.5696 49.43C14.4896 46.77 17.8796 43.63 21.5596 40.34C25.2396 37.029 29.1896 33.55 33.1496 30.06C35.1296 28.33 37.1196 26.6 39.0796 24.899C41.0396 23.198 42.9796 21.54 44.8496 19.93C48.5996 16.71 52.1596 13.779 55.1796 11.22C58.1996 8.66097 60.7796 6.61997 62.5596 5.14897L65.2796 2.96997Z" fill="#FF5733"/>
</g>
<g style="mix-blend-mode:overlay">
<path d="M102.9 6.14897C104.09 5.19897 104.93 4.52896 105.34 4.20996L84.3996 22.56L67.9896 36.94L44.8496 57.2C45.1796 56.88 45.9996 56.1 47.1996 54.949C48.8196 53.44 51.0996 51.24 53.9096 48.68C56.7196 46.12 59.9596 43.11 63.4996 39.94C67.0396 36.77 70.8296 33.42 74.6196 30.07C76.5296 28.399 78.4396 26.74 80.3196 25.11C82.1996 23.48 84.0696 21.88 85.8696 20.34C89.4696 17.25 92.8996 14.43 95.7996 11.98C98.6996 9.52997 101.19 7.55997 102.9 6.14897Z" fill="#FF5733"/>
</g>
<g style="mix-blend-mode:screen" opacity="0.4">
<path d="M105.54 4.05005C105.54 4.06005 105.53 4.06004 105.52 4.07004L105.44 4.13004C105.465 4.10393 105.491 4.08047 105.52 4.06004C105.53 4.06004 105.53 4.05005 105.54 4.05005Z" fill="#FF5733"/>
</g>
<g style="mix-blend-mode:multiply" opacity="0.25">
<path d="M68.68 0C68.45 0.36 68.22 0.709998 67.99 1.06C66.55 3.279 65.09 5.48 63.64 7.69C61.96 10.25 60.24 12.79 58.52 15.33C55.1 20.4087 51.65 25.4687 48.17 30.51L42.92 38.06L42.69 38.39V37.01L26.44 60.17H0C4.4 59.98 8.81 59.899 13.22 59.76L26.09 59.54C27.75 57.09 29.44 54.659 31.11 52.22L36.35 44.68L41.63 37.149L46.94 29.649C50.49 24.659 54.08 19.6923 57.71 14.749C59.51 12.278 61.31 9.799 63.15 7.349C64.99 4.899 66.81 2.433 68.68 0Z" fill="black"/>
</g>
<g style="mix-blend-mode:multiply" opacity="0.25">
<path d="M110.161 0C110.011 0.24 109.861 0.479991 109.701 0.709991C108.201 3.04999 106.651 5.37 105.121 7.69C103.451 10.25 101.721 12.79 100.011 15.33C96.5915 20.4087 93.1381 25.4687 89.6515 30.51L84.4015 38.06V36.68L67.9915 60.06L67.9215 60.17H41.4805C45.8905 59.98 50.2905 59.899 54.7005 59.76L67.5805 59.54C69.2305 57.09 70.9205 54.659 72.5905 52.22L77.8405 44.68L83.1105 37.149L88.4205 29.649C91.9705 24.659 95.5605 19.6923 99.1905 14.749C100.99 12.278 102.79 9.799 104.64 7.349C106.47 4.89 108.29 2.433 110.161 0Z" fill="black"/>
</g>
<g style="mix-blend-mode:multiply" opacity="0.25">
<path d="M109.7 16.8701V60.0601H84.4004C86.5104 59.9301 88.6204 59.8501 90.7304 59.7601C92.8404 59.6701 94.9404 59.6101 97.0504 59.5401C101.02 59.4301 104.98 59.3701 108.95 59.3201C108.92 55.9691 108.9 52.6201 108.91 49.2601C108.92 45.6601 108.94 42.0601 109 38.4601C109.06 34.8601 109.12 31.2691 109.24 27.6701C109.28 25.8701 109.36 24.0701 109.44 22.2701C109.47 21.3701 109.51 20.4811 109.55 19.5811C109.59 18.6811 109.64 17.7691 109.7 16.8701Z" fill="black"/>
</g>
<g style="mix-blend-mode:overlay">
<path d="M102.361 3.05171e-05C99.2513 0.159031 96.1413 0.230021 93.0413 0.350021C90.0313 0.450021 87.0313 0.490028 84.0313 0.560028C82.5613 2.75003 81.1013 4.94002 79.6013 7.10002L74.9513 13.84L70.2613 20.55L65.5413 27.24L60.7613 33.89L55.9313 40.49C54.3113 42.69 52.7113 44.899 51.0613 47.07C49.4113 49.241 47.7913 51.43 46.1113 53.58L67.9913 22.399L83.7213 -0.000976562L102.361 3.05171e-05Z" fill="#FF5733"/>
</g>
<g style="mix-blend-mode:overlay">
<path d="M64.361 0C60.671 0.18 56.981 0.259994 53.301 0.399994L42.581 0.621002C41.131 2.77 39.651 4.89999 38.191 7.05099L33.581 13.7L28.931 20.331L24.251 26.931L19.531 33.501L14.751 40.03C13.151 42.211 11.571 44.391 9.93102 46.541C8.31102 48.7 6.69102 50.861 5.04102 53.001C5.06102 52.961 5.09102 52.931 5.11102 52.891L42.241 0.000991821L64.361 0Z" fill="#FF5733"/>
</g>
</g>
<defs>
<linearGradient id="paint0_linear_1_40" x1="75.272" y1="25.8735" x2="102.245" y2="-16.05" gradientUnits="userSpaceOnUse">
<stop stop-color="#FF5733"/>
<stop offset="1" stop-color="#F8A700"/>
</linearGradient>
<linearGradient id="paint1_linear_1_40" x1="41.4805" y1="30.085" x2="110.161" y2="30.085" gradientUnits="userSpaceOnUse">
<stop stop-color="#FF5733"/>
<stop offset="1" stop-color="#FF5733"/>
</linearGradient>
</defs>
</svg>
